<?xml version="1.0" encoding="utf-8"?>
<!-- Generator: Adobe Illustrator 27.9.5, SVG Export Plug-In . SVG Version: 9.03 Build 54986)  -->
<svg version="1.1" id="Layer_1" xmlns="http://www.w3.org/2000/svg" xmlns:xlink="http://www.w3.org/1999/xlink" x="0px" y="0px"
	 viewBox="0 0 400 200" style="enable-background:new 0 0 400 200;" xml:space="preserve">
<style type="text/css">
	.st0{fill:none;}
	.st1{fill:#6079A6;stroke:#6079A6;stroke-width:4;stroke-miterlimit:10;}
</style>
<g>
	<rect x="46.52" y="59.64" class="st0" width="211.76" height="187.06"/>
	<path class="st1" d="M60.51,138.23V30.86h14.21v107.37H60.51z"/>
	<path class="st1" d="M135.94,138.23v-94.7h-35.38V30.86h85.11v12.67h-35.53v94.7H135.94z"/>
</g>
<g>
	<rect x="182.29" y="67.15" class="st0" width="408.24" height="258.82"/>
	<path class="st1" d="M216.38,134.58c0,1.51-0.47,2.75-1.41,3.71s-2.17,1.44-3.69,1.44H193c-1.52,0-2.76-0.48-3.73-1.44
		s-1.46-2.2-1.46-3.71v-18.42h6.45v17.86h15.68v-17.3L189.9,92.51c-1.39-1.67-2.09-3.51-2.09-5.52v-14.7c0-1.51,0.49-2.75,1.46-3.71
		s2.22-1.44,3.73-1.44h18.28c1.51,0,2.74,0.48,3.69,1.44c0.94,0.96,1.41,2.2,1.41,3.71v16.88h-6.45V72.84h-15.68v15.31l20.13,24.21
		c1.33,1.61,1.99,3.42,1.99,5.43v16.79H216.38z"/>
	<path class="st1" d="M273.96,139.73h-23.84v-72.6h23.56v5.71h-17.12v27.09h15.59v5.8h-15.59v28.3h17.39L273.96,139.73
		L273.96,139.73z"/>
	<path class="st1" d="M335.44,134.58c0,1.51-0.5,2.75-1.48,3.71c-0.99,0.96-2.24,1.44-3.76,1.44h-18.69c-1.52,0-2.75-0.48-3.71-1.44
		s-1.44-2.2-1.44-3.71v-62.3c0-1.51,0.48-2.75,1.44-3.71s2.2-1.44,3.71-1.44h18.69c1.51,0,2.77,0.48,3.76,1.44
		c0.99,0.96,1.48,2.2,1.48,3.71v16.88h-6.49V72.83h-16.14v61.18h16.14v-17.86h6.49V134.58z"/>
</g>
<g>
</g>
<g>
</g>
<g>
</g>
<g>
</g>
<g>
</g>
<g>
</g>
<g>
</g>
<g>
</g>
<g>
</g>
<g>
</g>
<g>
</g>
</svg>
